<svg id="visual" viewBox="0 0 960 540" width="960" height="540" xmlns="http://www.w3.org/2000/svg" xmlns:xlink="http://www.w3.org/1999/xlink" version="1.1"><path d="M0 413L16 408.7C32 404.3 64 395.7 96 393C128 390.3 160 393.7 192 397.2C224 400.7 256 404.3 288 400.3C320 396.3 352 384.7 384 388.7C416 392.7 448 412.3 480 416.7C512 421 544 410 576 407.8C608 405.7 640 412.3 672 412C704 411.7 736 404.3 768 398C800 391.7 832 386.3 864 383.2C896 380 928 379 944 378.5L960 378L960 541L944 541C928 541 896 541 864 541C832 541 800 541 768 541C736 541 704 541 672 541C640 541 608 541 576 541C544 541 512 541 480 541C448 541 416 541 384 541C352 541 320 541 288 541C256 541 224 541 192 541C160 541 128 541 96 541C64 541 32 541 16 541L0 541Z" fill="#777777"></path><path d="M0 445L16 439.5C32 434 64 423 96 423.3C128 423.7 160 435.3 192 435.7C224 436 256 425 288 419.8C320 414.7 352 415.3 384 416.2C416 417 448 418 480 417.2C512 416.3 544 413.7 576 412.5C608 411.3 640 411.7 672 415.8C704 420 736 428 768 428.3C800 428.7 832 421.3 864 419.3C896 417.3 928 420.7 944 422.3L960 424L960 541L944 541C928 541 896 541 864 541C832 541 800 541 768 541C736 541 704 541 672 541C640 541 608 541 576 541C544 541 512 541 480 541C448 541 416 541 384 541C352 541 320 541 288 541C256 541 224 541 192 541C160 541 128 541 96 541C64 541 32 541 16 541L0 541Z" fill="#6b6c6d"></path><path d="M0 447L16 447.5C32 448 64 449 96 450.8C128 452.7 160 455.3 192 453C224 450.7 256 443.3 288 440.5C320 437.7 352 439.3 384 444.7C416 450 448 459 480 460.5C512 462 544 456 576 449.8C608 443.7 640 437.3 672 441.5C704 445.7 736 460.3 768 466.2C800 472 832 469 864 463.7C896 458.3 928 450.7 944 446.8L960 443L960 541L944 541C928 541 896 541 864 541C832 541 800 541 768 541C736 541 704 541 672 541C640 541 608 541 576 541C544 541 512 541 480 541C448 541 416 541 384 541C352 541 320 541 288 541C256 541 224 541 192 541C160 541 128 541 96 541C64 541 32 541 16 541L0 541Z" fill="#606163"></path><path d="M0 465L16 469.8C32 474.7 64 484.3 96 487.8C128 491.3 160 488.7 192 486.3C224 484 256 482 288 482.5C320 483 352 486 384 483.5C416 481 448 473 480 473.3C512 473.7 544 482.3 576 486.3C608 490.3 640 489.7 672 490.5C704 491.3 736 493.7 768 492.5C800 491.3 832 486.7 864 481.8C896 477 928 472 944 469.5L960 467L960 541L944 541C928 541 896 541 864 541C832 541 800 541 768 541C736 541 704 541 672 541C640 541 608 541 576 541C544 541 512 541 480 541C448 541 416 541 384 541C352 541 320 541 288 541C256 541 224 541 192 541C160 541 128 541 96 541C64 541 32 541 16 541L0 541Z" fill="#555659"></path><path d="M0 508L16 507.3C32 506.7 64 505.3 96 506.5C128 507.7 160 511.3 192 512.8C224 514.3 256 513.7 288 513C320 512.3 352 511.7 384 512C416 512.3 448 513.7 480 510.3C512 507 544 499 576 498.8C608 498.7 640 506.3 672 510.3C704 514.3 736 514.7 768 514.2C800 513.7 832 512.3 864 512.5C896 512.7 928 514.3 944 515.2L960 516L960 541L944 541C928 541 896 541 864 541C832 541 800 541 768 541C736 541 704 541 672 541C640 541 608 541 576 541C544 541 512 541 480 541C448 541 416 541 384 541C352 541 320 541 288 541C256 541 224 541 192 541C160 541 128 541 96 541C64 541 32 541 16 541L0 541Z" fill="#4a4c50"></path></svg>
